<?xml version="1.0" encoding="UTF-8"?>
<svg width="128pt" height="128pt" version="1.1" viewBox="0 0 128 135" xmlns="http://www.w3.org/2000/svg">
 <g>
  <path d="m116 68c-1.4688 0.003906-2.8789-0.80859-3.582-2.2109l-15.445-30.891-32.977-18.32-32.977 18.32-15.445 30.891c-0.99219 1.9766-3.3906 2.7773-5.3672 1.7891-1.9766-0.98828-2.7773-3.3906-1.7891-5.3672l16-32c0.35938-0.72266 0.92969-1.3164 1.6367-1.707l36-20c1.2031-0.67188 2.6797-0.67188 3.8828 0l36 20c0.70703 0.39062 1.2773 0.98438 1.6367 1.707l16 32c0.98828 1.9766 0.1875 4.3789-1.7891 5.3672-0.57422 0.28906-1.1836 0.42188-1.7852 0.42188z"/>
  <path d="m88 95.32-9.3438 10.68 9.3438 10.68z"/>
  <path d="m66 97.605v16.789l7.3438-8.3945z"/>
  <path d="m76 109.04-9.3438 10.68 0.25 0.28516h18.688z"/>
  <path d="m52 109.04-9.5938 10.965h18.688l0.25-0.28516z"/>
  <path d="m66.656 92.285 9.3438 10.68 9.5938-10.965h-18.688z"/>
  <path d="m40 76h48v12h-48z"/>
  <path d="m93.953 37.793-29.953-16.641-29.953 16.641-18.047 35.496v42.711c0 2.2109 1.7891 4 4 4h16v-46c0-1.1055 0.89453-2 2-2h52c1.1055 0 2 0.89453 2 2v46h16c2.2109 0 4-1.7891 4-4v-42.234zm-21.953 14.207c0 2.2109-1.7891 4-4 4h-8c-2.2109 0-4-1.7891-4-4v-8c0-2.2109 1.7891-4 4-4h8c2.2109 0 4 1.7891 4 4z"/>
  <path d="m62 114.39v-16.789l-7.3438 8.3945z"/>
  <path d="m49.344 106-9.3438-10.68v21.359z"/>
  <path d="m52 102.96 9.3438-10.68-0.25-0.28516h-18.688z"/>
 </g>
</svg>
