<?xml version="1.0" encoding="UTF-8"?>
<svg width="128pt" height="128pt" version="1.1" viewBox="0 0 128 128" xmlns="http://www.w3.org/2000/svg">
 <g>
  <path d="m35.188 33.652c-8.5391-3.1641-16.18-8.8594-5.7461-18.293h-1.1758c-3.9805 0-16.641 1.125-14.555 15.512l-0.003907 0.003906c0.64844 4.043 2.5039 7.7969 5.3281 10.762 2.5078-0.94531 5.1641-1.4414 7.8438-1.457 1.3359 0.003906 2.668 0.11328 3.9805 0.33203 0.41016-1.2812 0.96875-2.5117 1.6641-3.6602 0.73437-1.1836 1.6328-2.2617 2.6641-3.1992z"/>
  <path d="m101.12 40.18c2.6797-0.003907 5.3398 0.46875 7.8594 1.3945 2.8203-2.9688 4.6758-6.7188 5.3242-10.766 2.0586-14.387-10.625-15.449-14.578-15.449h-1.1758c10.445 9.4609 2.8047 15.156-5.7344 18.316h-0.003906c1.0312 0.93359 1.918 2.0117 2.6367 3.1992 0.69531 1.1562 1.2578 2.3828 1.6758 3.6641 1.3203-0.23047 2.6562-0.34766 3.9961-0.35937z"/>
  <path d="m101.12 42.098c-1.1562 0.003906-2.3125 0.09375-3.457 0.26953 1.0508 4.6211 0.84375 10.469-0.60156 17.637v0.003906c2.5273 0.93359 5.2031 1.4219 7.8984 1.4336 6.0586-0.15234 11.898-2.2812 16.641-6.0547-6.5547-10.844-14.594-13.289-20.48-13.289z"/>
  <path d="m30.375 42.367c-1.1562-0.17578-2.3242-0.26563-3.4961-0.26953-5.9141 0-13.953 2.4453-20.48 13.285v0.003907c4.7422 3.7734 10.582 5.9023 16.641 6.0547 2.707-0.011718 5.3867-0.49609 7.9258-1.4336-1.4492-7.168-1.6406-13.02-0.58984-17.641z"/>
  <path d="m48.961 103.27c1.2969 2.8828 3.4141 5.3125 6.0938 6.9922 2.6758 1.6797 5.7891 2.5273 8.9453 2.4414 3.1602 0.089844 6.2734-0.75781 8.9492-2.4375s4.7969-4.1133 6.0898-6.9961c-4.8945 1.3477-9.9648 1.9648-15.039 1.832-5.0742 0.13281-10.145-0.48437-15.039-1.832z"/>
  <path d="m82.523 31.055c-0.68359-0.13672-1.3789-0.21484-2.0742-0.23047h-1.3438c-1.1445 0.042969-2.2812 0.20703-3.3945 0.48438-3.8359 0.91406-7.7656 1.375-11.711 1.3711-3.9453-0.003907-7.875-0.46484-11.711-1.3828-1.1133-0.27734-2.25-0.44141-3.3945-0.48828h-1.3438c-0.69531 0.019531-1.3867 0.097656-2.0742 0.23047-8.8594 1.8047-18.855 6.8086-11.035 35.277 2.3281 8.4727 4.1328 14.656 5.5312 19.199 3.2773-7.6797 12.508-14.578 24.027-14.578s20.762 6.8984 24.027 14.605c1.3945-4.5586 3.1992-10.738 5.5312-19.199 7.8164-28.48-2.1797-33.484-11.035-35.289zm-33.141 27.734c-2.5469 0.007813-4.8477-1.5234-5.8281-3.875-0.97656-2.3516-0.44531-5.0586 1.3516-6.8672 1.7969-1.8047 4.5078-2.3477 6.8633-1.3789 2.3516 0.97266 3.8906 3.2656 3.8984 5.8125 0.003906 1.668-0.65625 3.2734-1.8359 4.457-1.1797 1.1836-2.7812 1.8477-4.4492 1.8516zm29.246 0c-2.543 0-4.8398-1.5312-5.8164-3.8828-0.97266-2.3516-0.4375-5.0586 1.3594-6.8633 1.8008-1.8008 4.5078-2.3438 6.8594-1.3711 2.3555 0.96875 3.8906 3.2617 3.8984 5.8086 0 1.6719-0.66016 3.2773-1.8398 4.4609-1.1836 1.1836-2.7852 1.8477-4.4609 1.8477z"/>
  <path d="m64 72.859c-12.93 0-23.398 9.7148-23.398 18.637 0 8.918 10.469 11.684 23.398 11.684s23.41-2.7656 23.41-11.688c0-8.918-10.48-18.633-23.41-18.633zm-8.6797 23.938v-0.003906c-2.8789 0.19531-5.5859-1.3906-6.8203-4-1.2383-2.6055-0.75391-5.707 1.2188-7.8125 1.9727-2.1094 5.0312-2.793 7.7148-1.7305 2.6836 1.0586 4.4453 3.6562 4.4414 6.543 0.11719 3.7383-2.8125 6.8672-6.5547 7zm17.371 0v-0.003906c-2.8789 0.19922-5.5898-1.3828-6.832-3.9883-1.2422-2.6094-0.76172-5.707 1.2109-7.8203 1.9688-2.1094 5.0312-2.7969 7.7188-1.7383 2.6836 1.0625 4.4453 3.6602 4.4414 6.5469 0.125 3.7383-2.8008 6.8672-6.5391 7z"/>
  <path d="m55.32 84.699c-2.1016-0.20312-4.1133 0.91016-5.0625 2.7969-0.94531 1.8906-0.63672 4.168 0.78125 5.7344 1.418 1.5664 3.6523 2.1016 5.625 1.3477 1.9766-0.75781 3.2812-2.6484 3.293-4.7617 0.0625-1.293-0.38672-2.5586-1.2578-3.5195-0.86719-0.96094-2.082-1.5352-3.3789-1.5977z"/>
  <path d="m72.691 84.699c-2.1055-0.20703-4.1172 0.90234-5.0703 2.7891s-0.64453 4.1641 0.76953 5.7344c1.418 1.5703 3.6523 2.1094 5.6289 1.3555 1.9727-0.75391 3.2812-2.6445 3.293-4.7617 0.13672-2.6875-1.9297-4.9805-4.6211-5.1172z"/>
  <path d="m53.762 52.492c0 5.8359-8.7578 5.8359-8.7578 0 0-5.8359 8.7578-5.8359 8.7578 0"/>
  <path d="m83.008 52.492c0 5.8359-8.7539 5.8359-8.7539 0 0-5.8359 8.7539-5.8359 8.7539 0"/>
 </g>
</svg>
