<?xml version="1.0" encoding="UTF-8"?>
<svg width="1200pt" height="1200pt" version="1.1" viewBox="0 0 1200 1200"
    xmlns="http://www.w3.org/2000/svg" style="fill:rgba(255, 255, 255, 0.9)">
    <g>
        <path d="m0 510h120v60h-120z"/>
        <path d="m959.86 569.45 0.27734-60 120 0.55078-0.27734 60z"/>
        <path d="m509.44 119.86 0.5625-120 60 0.28125-0.5625 120z"/>
        <path d="m136.95 900.62 84.848-84.848 42.422 42.422-84.848 84.848z"/>
        <path d="m815.48 221.3 85.246-84.453 42.234 42.633-85.246 84.453z"/>
        <path d="m815.77 858.2 42.418-42.426 84.855 84.844-42.418 42.426z"/>
        <path d="m136.85 179.29 42.621-42.234 84.461 85.242-42.621 42.234z"/>
        <path d="m900 540c-0.003906 63.191-16.637 125.27-48.234 180-31.598 54.723-77.039 100.17-131.77 131.77v123.36l-360-123.36c-73.297-42.32-129.34-109.11-158.29-188.64-28.945-79.531-28.945-166.72 0.003906-246.25s84.992-146.32 158.29-188.64c73.297-42.316 159.16-57.453 242.51-42.758 83.352 14.699 158.86 58.293 213.26 123.13 54.402 64.836 84.223 146.77 84.223 231.4z"/>
        <path d="m720 1041.1v53.277l-360-123v-53.277z"/>
        <path d="m720 1160.4v39.602h-360v-162.6z"/>
    </g>
</svg>
