<?xml version="1.0" encoding="UTF-8"?>
<svg width="1200pt" height="1200pt" version="1.1" viewBox="0 0 1200 1300"
    xmlns="http://www.w3.org/2000/svg">
    <g fill-rule="evenodd">
        <path d="m557.3 53.934-530.34 444.95c-62.922 53.934-4.4961 148.32 62.922 130.34l512.36-426.96 507.86 426.96c71.91 17.977 130.34-76.406 62.922-130.34l-143.82-116.86v-193.26h-143.82v67.414l-238.2-202.25c-26.965-17.977-62.922-17.977-89.887 0z"/>
        <path d="m1083.1 669.66v489.89h-116.86v-400h-247.19v400h-602.25v-489.89l485.39-400zm-777.53 89.887h71.91v71.91h-71.91zm98.875 0h71.91v71.91h-71.91zm71.91 98.875v71.91h-71.91v-71.91zm-98.875 71.91h-71.91v-71.91h71.91zm125.84 71.91v-49.438h-224.72v49.438z"/>
    </g>
</svg>
