<?xml version="1.0" encoding="UTF-8"?>
<svg width="128pt" height="128pt" version="1.1" viewBox="16 16 96 96"
    xmlns="http://www.w3.org/2000/svg" style="fill:rgba(255, 255, 255, 0.9)">
    <path d="m98.508 59.426-30.668-26.723c-1.5078-1.3125-3.7539-1.3125-5.2539 0.003906l-30.535 26.727c-2.7734 2.4297-1.0547 7 2.6328 7 2.207 0 3.9922 1.7891 3.9922 3.9961v23.336c0 2.207 1.7891 3.9922 3.9961 3.9922h13.996v-20.453c0-1.2461 1.0117-2.2578 2.2578-2.2578h12.715c1.2461 0 2.2578 1.0117 2.2578 2.2578v20.453h13.293c2.207 0 3.9961-1.7852 3.9961-3.9922v-23.336c0-2.207 1.7891-3.9961 3.9922-3.9961h0.70312c3.6914 0 5.4062-4.582 2.625-7.0078"/>
</svg>
