<?xml version="1.0" encoding="UTF-8"?>
<svg width="128pt" height="128pt" version="1.1" viewBox="0 0 128 128" xmlns="http://www.w3.org/2000/svg"  style="fill:rgba(255, 255, 255, 0.9)">
 <defs>
  <clipPath id="a">
   <path d="m23.695 32h80.609v64h-80.609z"/>
  </clipPath>
 </defs>
 <g clip-path="url(#a)">
  <path d="m23.695 37.129c0-2.4727 1.9922-4.4766 4.4492-4.4766h71.711c2.457 0 4.4492 1.9883 4.4492 4.4766 0 2.4766-1.9922 4.4805-4.4492 4.4805h-71.711c-2.457 0-4.4492-1.9883-4.4492-4.4805zm0 26.871c0-2.4727 1.9922-4.4766 4.4492-4.4766h71.711c2.457 0 4.4492 1.9844 4.4492 4.4766 0 2.4727-1.9922 4.4766-4.4492 4.4766h-71.711c-2.457 0-4.4492-1.9844-4.4492-4.4766zm0 26.871c0-2.4727 1.9922-4.4805 4.4492-4.4805h71.711c2.457 0 4.4492 1.9883 4.4492 4.4805 0 2.4727-1.9922 4.4766-4.4492 4.4766h-71.711c-2.457 0-4.4492-1.9883-4.4492-4.4766z" fill-rule="evenodd"/>
 </g>
</svg>
