<?xml version="1.0" encoding="UTF-8"?>
<svg width="128pt" height="128pt" version="1.1" viewBox="0 0 128 128" xmlns="http://www.w3.org/2000/svg"  style="fill:rgba(255, 255, 255, 0.9)">
 <defs>
  <clipPath id="a">
   <path d="m23.695 23.695h80.609v80.609h-80.609z"/>
  </clipPath>
 </defs>
 <g clip-path="url(#a)">
  <path d="m64 95.348c17.312 0 31.348-14.035 31.348-31.348s-14.035-31.348-31.348-31.348-31.348 14.035-31.348 31.348 14.035 31.348 31.348 31.348zm13.035-31.348c0.10938-1.2695-0.31641-2.5703-1.2656-3.5234l-12.727-12.723c-1.7305-1.7344-4.543-1.7305-6.3047 0.027344-1.7461 1.75-1.7383 4.5977-0.027343 6.3047l9.9141 9.9141-9.9141 9.9141c-1.7109 1.707-1.7188 4.5547 0.027343 6.3047 1.7617 1.7617 4.5742 1.7617 6.3047 0.027344l12.727-12.723c0.94922-0.95313 1.375-2.2539 1.2656-3.5234zm-13.035 40.305c-22.258 0-40.305-18.043-40.305-40.305 0-22.258 18.047-40.305 40.305-40.305 22.262 0 40.305 18.047 40.305 40.305 0 22.262-18.043 40.305-40.305 40.305z"/>
 </g>
</svg>
