<?xml version="1.0" encoding="UTF-8"?>
<svg width="1200pt" height="1200pt" version="1.1" viewBox="0 0 1200 1300"
    xmlns="http://www.w3.org/2000/svg">
    <g>
        <path d="m845 166.25c-10.25-93-116-166.25-245-166.25s-234.75 73.25-245 166.25c80.734-15.48 162.79-23.016 245-22.5 82.207-0.51562 164.27 7.0195 245 22.5z"/>
        <path d="m292.25 427.25v-2.25c0.16016-19.191 5.4336-37.996 15.277-54.473 9.8438-16.48 23.898-30.035 40.723-39.277 1.5352-1.9492 3.2031-3.7891 5-5.5 6.9531-6.0156 15.809-9.3789 25-9.5h5c17.832 2.1953 35.785 3.2812 53.75 3.25 74.758 0.67188 148.32-18.758 213-56.25 6.0859-3.7891 13.082-5.8633 20.25-6 2.7383-0.36719 5.5117-0.36719 8.25 0 9.2344 2.8398 16.965 9.2227 21.5 17.75 3.5 4.5 32.5 38.5 113 38.5h8c9.8711 0.125 19.332 3.9609 26.5 10.75 2.4336 2.4648 4.5352 5.2383 6.25 8.25 33.098 19.105 53.633 54.285 54 92.5v2.75c85.5-25 139.25-62.5 139.25-103.25 0-78.75-200-142.5-447-142.5s-447 63.25-447 143c0 39.75 53.75 76.25 139.25 102.25z"/>
        <path d="m869.75 425c-0.11328-14.516-4.8203-28.621-13.441-40.297-8.625-11.676-20.719-20.324-34.559-24.703v-8.25c-115.75 2.75-152.75-55.5-152.75-55.5-87.945 50.66-190.1 71.039-290.75 58v5.75c-13.84 4.3789-25.934 13.027-34.559 24.703-8.6211 11.676-13.328 25.781-13.441 40.297 0.015625 14.887 4.918 29.355 13.949 41.188s21.695 20.371 36.051 24.312c8.6094 51.801 35.32 98.863 75.375 132.81 40.059 33.953 90.867 52.586 143.38 52.586s103.32-18.633 143.38-52.586c40.055-33.949 66.766-81.012 75.375-132.81 14.727-3.5625 27.84-11.945 37.262-23.812 9.418-11.863 14.605-26.535 14.738-41.688z"/>
        <path d="m875 709.75c-8.25 15.75-29.25 70.5-40.5 229.5-0.37891 4.7734-2.5469 9.2305-6.0703 12.477-3.5195 3.2422-8.1406 5.0391-12.93 5.0234h-431.5c-4.7891 0.015625-9.4102-1.7812-12.93-5.0234-3.5234-3.2461-5.6914-7.7031-6.0703-12.477-11.25-159-32.25-214.25-40-229.5-23.105-0.19531-46.16 2.1484-68.75 7 15.5 46 46.25 172.5 50 454.75 96.492 20.793 195.06 30.359 293.75 28.5 99.188 1.9727 198.27-7.5898 295.25-28.5 2.75-282.25 33.5-408.75 50-454.75-23.078-4.9609-46.645-7.3086-70.25-7zm-515 369c-7.3008-0.003906-14.305-2.8867-19.496-8.0195-5.1914-5.1367-8.1484-12.109-8.2344-19.41-0.085937-7.3008 2.7109-14.34 7.7812-19.594 5.0703-5.25 12.008-8.293 19.305-8.4688 7.3008-0.17187 14.375 2.5352 19.688 7.543 5.3164 5.0039 8.4453 11.902 8.707 19.199 0.27344 7.5312-2.5312 14.848-7.7656 20.273-5.2344 5.4219-12.449 8.4805-19.984 8.4766zm354.75 60.5c-36.551 14.168-75.566 20.883-114.75 19.75-39.184 1.1328-78.199-5.582-114.75-19.75-4.5586-2.0664-8.1055-5.875-9.8398-10.57-1.7383-4.6953-1.5273-9.8906 0.58984-14.43 2.0742-4.5586 5.8633-8.1133 10.547-9.8945 4.6797-1.7773 9.875-1.6367 14.453 0.39453 31.539 11.824 65.086 17.344 98.75 16.25 34.164 1.293 68.242-4.2305 100.25-16.25 4.5781-2.0312 9.7734-2.1719 14.453-0.39453 4.6836 1.7812 8.4727 5.3359 10.547 9.8945 2.0586 4.6641 2.1289 9.9648 0.19531 14.68-1.9336 4.7188-5.707 8.4414-10.445 10.32zm125-60.5c-7.2852-0.070312-14.254-3.0039-19.395-8.168-5.1406-5.1602-8.0469-12.141-8.0859-19.426-0.042969-7.2852 2.7852-14.297 7.8672-19.516 5.0859-5.2188 12.02-8.2305 19.305-8.3828 7.2852-0.15234 14.336 2.5664 19.633 7.5703s8.4141 11.891 8.6758 19.172c0.27344 7.5312-2.5312 14.848-7.7656 20.273-5.2344 5.4219-12.449 8.4805-19.984 8.4766z"/>
        <path d="m377.25 710.5h-11.5c20.84 67.672 32.855 137.75 35.75 208.5h397c2.9922-70.719 14.922-140.77 35.5-208.5h-11.25-16.5l-116.75 127.25c-3.625 3.8633-8.6992 6.0391-14 6h-3c-6.4102-0.95312-11.836-5.2344-14.25-11.25l-58.25-137.5-58.25 136.25c-2.4141 6.0156-7.8398 10.297-14.25 11.25h-2.5c-5.3008 0.039062-10.375-2.1367-14-6l-116.75-127.25c-5.75 0.75-11.25 1.25-17 1.25z"/>
        <path d="m115.25 1052.5s10.5 64.75 151.5 108.5c-3.25-273-33.75-392.5-47.25-432.5-69.5 31.25-124.5 113.25-104.25 324z"/>
        <path d="m980.5 728.5c-13.5 40-44 159.5-47.25 432.5 141-43.75 151.5-108.5 151.5-108.5 20.25-210.75-34.75-292.75-104.25-324z"/>
        <path d="m552.75 709.25c-31.867-5.7305-62.387-17.344-90-34.25-7.3125 10.445-16.992 19.016-28.25 25l84 91.5z"/>
        <path d="m765.5 697.75c-11.258-5.9844-20.938-14.555-28.25-25-27.523 17.344-58.047 29.383-90 35.5l34.25 80z"/>
    </g>
</svg>
