<?xml version="1.0" encoding="UTF-8"?>
<svg width="1200pt" height="1200pt" version="1.1" viewBox="0 0 1200 1200" xmlns="http://www.w3.org/2000/svg">
 <g>
  <path d="m734.61 289.06c0 74.344-60.27 134.61-134.61 134.61s-134.61-60.27-134.61-134.61c0-74.348 60.27-134.62 134.61-134.62s134.61 60.27 134.61 134.62"/>
  <path d="m780 402.76h-50.578c-31.656 35.977-77.859 58.812-129.42 58.812s-97.77-22.852-129.42-58.812h-50.578c-20.918 0-37.895 23.09-37.895 51.586v253.67c0 28.496 16.977 51.586 37.895 51.586h45.387v248.07c0 20.918 28.926 37.895 64.609 37.895h140.01c35.684 0 64.609-16.977 64.609-37.895v-248.07h45.387c20.918 0 37.895-23.09 37.895-51.586v-253.67c0-28.496-16.977-51.586-37.895-51.586z"/>
 </g>
</svg>
