<?xml version="1.0" encoding="UTF-8"?>
<svg width="1200pt" height="1200pt" version="1.1" viewBox="0 0 1200 1200"
    xmlns="http://www.w3.org/2000/svg">
    <g>
        <path d="m410.4 556.8c-7.1992-8.3984-8.3984-16.801-6-24-26.398-1.1992-46.801 22.801-42 49.199 3.6016 15.602 15.602 27.602 31.199 31.199 26.398 6 49.199-14.398 49.199-39.602 0-7.1992-2.3984-14.398-4.8008-20.398-4.7969 8.4023-15.598 10.801-27.598 3.6016z"/>
        <path d="m853.2 556.8c-7.1992-8.3984-8.3984-16.801-6-24-26.398-1.1992-46.801 22.801-42 49.199 3.6016 15.602 15.602 27.602 31.199 31.199 26.398 6 49.199-14.398 49.199-39.602 0-7.1992-2.3984-14.398-4.8008-20.398-5.9961 8.4023-16.797 10.801-27.598 3.6016z"/>
        <path d="m958.8 370.8c3.6016-4.8008 7.1992-9.6016 8.3984-16.801 15.602-55.199 19.199-171.6-33.602-180-48-8.3984-85.199 36-103.2 78-60-37.199-128.4-60-200.4-60s-140.4 22.801-200.4 60c-19.199-42-55.199-86.398-103.2-78-52.801 8.3984-49.199 124.8-33.602 180 2.3984 6 4.8008 12 8.3984 16.801-169.2 205.2-109.2 433.2 6 490.8 9.6016 60 10.801 98.398 12 98.398 3.6016 28.801 8.3984 60 28.801 60h88.801c25.199 0 36-28.801 42-63.602 1.1992-4.8008 2.3984-9.6016 2.3984-15.602 46.801 10.801 96 15.602 148.8 15.602 54 0 104.4-4.8008 152.4-15.602 1.1992 4.8008 2.3984 10.801 2.3984 15.602 6 34.801 16.801 63.602 42 63.602h88.801c20.398 0 25.199-30 28.801-60 1.1992 0 2.3984-39.602 12-100.8 62.398-51.602 99.602-123.6 99.602-217.2 0-93.602-37.199-190.8-97.199-271.2zm-567.6 277.2c-31.199-4.8008-56.398-30-61.199-61.199-8.3984-51.602 36-96 86.398-86.398 31.199 4.8008 56.398 30 61.199 61.199 8.4023 50.398-34.797 94.797-86.398 86.398zm238.8 152.4c-78 0-141.6-42-141.6-94.801 0-51.602 63.602-94.801 141.6-94.801s141.6 42 141.6 94.801c-1.2031 52.801-63.602 94.801-141.6 94.801zm202.8-152.4c-31.199-4.8008-56.398-30-61.199-61.199-8.3984-51.602 36-96 86.398-86.398 31.199 4.8008 56.398 30 61.199 61.199 9.6016 50.398-34.801 94.797-86.398 86.398z"/>
        <path d="m603.6 710.4c0 22.535-11.285 40.801-25.203 40.801-13.914 0-25.199-18.266-25.199-40.801 0-22.531 11.285-40.797 25.199-40.797 13.918 0 25.203 18.266 25.203 40.797"/>
        <path d="m708 710.4c0 22.535-11.281 40.801-25.199 40.801s-25.199-18.266-25.199-40.801c0-22.531 11.281-40.797 25.199-40.797s25.199 18.266 25.199 40.797"/>
    </g>
</svg>
